<svg xmlns="http://www.w3.org/2000/svg" xmlns:xlink="http://www.w3.org/1999/xlink" version="1.1" width="87" height="208" style="" xml:space="preserve"><rect id="backgroundrect" width="100%" height="100%" x="0" y="0" fill="none" stroke="none" class="" style=""/>
















<g class="currentLayer" style=""><title>Layer 1</title><g id="svg_1" class="" fill="#ffffff" fill-opacity="1" stroke="#000000" stroke-opacity="1">
	<g id="svg_2" fill="#ffffff" fill-opacity="1" stroke="#000000" stroke-opacity="1">
		<path d="M44.84521903038025,119.88867036366463 c-0.3040000000000001,3.58 2.126,22.529 3.38,29.959 c0.5970000000000002,3.52 2.234,9.255 1.645,12.3 c-0.8410000000000002,4.244 -1.084,9.736 -0.6210000000000002,12.934 c0.2920000000000001,1.9420000000000002 1.211,10.899000000000001 -0.10400000000000002,14.175 c-0.6880000000000004,1.718 -1.949,10.522 -1.949,10.522 c-3.285,8.294 -1.431,7.886 -1.431,7.886 c1.017,1.248 2.7590000000000003,0.09800000000000006 2.7590000000000003,0.09800000000000006 c1.327,0.8460000000000002 2.246,-0.201 2.246,-0.201 c1.139,0.9430000000000002 2.467,-0.11600000000000003 2.467,-0.11600000000000003 c1.431,0.7430000000000002 2.758,-0.6270000000000002 2.758,-0.6270000000000002 c0.8220000000000002,0.4140000000000001 1.023,-0.10900000000000003 1.023,-0.10900000000000003 c2.466,-0.15800000000000006 -1.3760000000000001,-8.05 -1.3760000000000001,-8.05 c-0.92,-7.088 0.913,-11.033 0.913,-11.033 c6.004,-17.805 6.309,-22.53 3.909,-29.24 c-0.6760000000000004,-1.937 -0.8470000000000002,-2.704 -0.536,-3.545 c0.7190000000000002,-1.941 0.19500000000000006,-9.748 1.072,-12.848 c1.6920000000000004,-5.979 3.361,-21.142 4.231,-28.217 c1.169,-9.53 -4.141,-22.308 -4.141,-22.308 c-1.163,-5.2 0.542,-23.727 0.542,-23.727 c2.3810000000000002,3.705 2.29,10.245 2.29,10.245 c-0.3780000000000001,6.859 5.541,17.342 5.541,17.342 c2.8440000000000003,4.332 3.9210000000000003,8.442 3.9210000000000003,8.747 c0,1.248 -0.273,4.269 -0.273,4.269 l0.10900000000000003,2.6310000000000002 c0.049000000000000016,0.6700000000000004 0.4260000000000001,2.977 0.3650000000000001,4.092 c-0.4440000000000001,6.862 0.6460000000000002,5.571 0.6460000000000002,5.571 c0.92,0 1.931,-5.522 1.931,-5.522 c0,1.424 -0.3480000000000002,5.687 0.4200000000000001,7.295 c0.919,1.9180000000000001 1.5950000000000002,-0.3290000000000001 1.6070000000000002,-0.78 c0.24300000000000005,-8.737 0.7680000000000002,-6.448 0.7680000000000002,-6.448 c0.511,7.088 1.139,8.689 2.265,8.135 c0.8530000000000002,-0.4070000000000001 0.07300000000000002,-8.506 0.07300000000000002,-8.506 c1.461,4.811 2.569,5.577 2.569,5.577 c2.411,1.693 0.92,-2.983 0.5850000000000002,-3.909 c-1.784,-4.92 -1.839,-6.625 -1.839,-6.625 c2.229,4.421 3.909,4.257 3.909,4.257 c2.174,-0.6940000000000004 -1.9,-6.954 -4.287,-9.953 c-1.218,-1.528 -2.789,-3.574 -3.245,-4.789 c-0.7430000000000002,-2.058 -1.304,-8.674 -1.304,-8.674 c-0.22500000000000006,-7.807 -2.1550000000000002,-11.198 -2.1550000000000002,-11.198 c-3.3,-5.282 -3.9210000000000003,-15.135 -3.9210000000000003,-15.135 l-0.14600000000000005,-16.635 c-1.157,-11.347 -9.518,-11.429 -9.518,-11.429 c-8.451,-1.258 -9.627,-3.988 -9.627,-3.988 c-1.79,-2.576 -0.7670000000000002,-7.514 -0.7670000000000002,-7.514 c1.485,-1.208 2.058,-4.415 2.058,-4.415 c2.466,-1.891 2.345,-4.658 1.206,-4.628 c-0.914,0.024000000000000007 -0.7070000000000002,-0.7330000000000002 -0.7070000000000002,-0.7330000000000002 C55.64821903038025,2.565670363664627 44.590219030380254,1.929670363664627 44.590219030380254,1.929670363664627 h-1.6880000000000004 c0,0 -11.063,0.6360000000000002 -9.523,13.089 c0,0 0.20700000000000005,0.7580000000000002 -0.7150000000000002,0.7330000000000002 c-1.1360000000000001,-0.030000000000000013 -1.242,2.737 1.215,4.628 c0,0 0.5720000000000002,3.206 2.058,4.415 c0,0 1.023,4.938 -0.7670000000000002,7.514 c0,0 -1.172,2.73 -9.627,3.988 c0,0 -8.375,0.08200000000000003 -9.514,11.429 l-0.15800000000000006,16.635 c0,0 -0.6090000000000002,9.853 -3.922,15.135 c0,0 -1.921,3.392 -2.143,11.198 c0,0 -0.5630000000000002,6.616 -1.303,8.674 c-0.451,1.209 -2.021,3.255 -3.249,4.789 c-2.408,2.993 -6.455,9.24 -4.29,9.953 c0,0 1.689,0.16400000000000006 3.909,-4.257 c0,0 -0.04600000000000002,1.693 -1.827,6.625 c-0.3500000000000001,0.914 -1.839,5.59 0.5730000000000002,3.909 c0,0 1.117,-0.7670000000000002 2.569,-5.577 c0,0 -0.779,8.099 0.08800000000000004,8.506 c1.133,0.555 1.7510000000000003,-1.047 2.262,-8.135 c0,0 0.524,-2.289 0.7670000000000002,6.448 c0.012000000000000004,0.451 0.6730000000000004,2.6980000000000004 1.596,0.78 c0.779,-1.608 0.4290000000000001,-5.864 0.4290000000000001,-7.295 c0,0 0.999,5.522 1.933,5.522 c0,0 1.099,1.291 0.6480000000000002,-5.571 c-0.07300000000000002,-1.121 0.3200000000000001,-3.422 0.3690000000000001,-4.092 l0.10600000000000002,-2.6310000000000002 c0,0 -0.274,-3.014 -0.274,-4.269 c0,-0.3110000000000001 1.078,-4.415 3.9210000000000003,-8.747 c0,0 5.913,-10.488 5.532,-17.342 c0,0 -0.08200000000000003,-6.54 2.299,-10.245 c0,0 1.6900000000000004,18.526 0.545,23.727 c0,0 -5.319,12.778 -4.146,22.308 c0.8640000000000002,7.094 2.5300000000000002,22.237 4.226,28.217 c0.8860000000000002,3.094 0.3620000000000001,10.899000000000001 1.072,12.848 c0.3200000000000001,0.8470000000000002 0.15200000000000005,1.6270000000000002 -0.536,3.545 c-2.387,6.71 -2.083,11.436 3.9210000000000003,29.24 c0,0 1.848,3.9450000000000003 0.914,11.033 c0,0 -3.8360000000000003,7.892 -1.379,8.05 c0,0 0.19200000000000006,0.523 1.023,0.10900000000000003 c0,0 1.327,1.37 2.761,0.6270000000000002 c0,0 1.328,1.06 2.463,0.11600000000000003 c0,0 0.91,1.047 2.237,0.201 c0,0 1.742,1.175 2.777,-0.09800000000000006 c0,0 1.839,0.4080000000000001 -1.435,-7.886 c0,0 -1.254,-8.793 -1.945,-10.522 c-1.318,-3.275 -0.3870000000000001,-12.251 -0.10600000000000002,-14.175 c0.453,-3.216 0.21000000000000005,-8.695 -0.6180000000000002,-12.934 c-0.6060000000000002,-3.038 1.035,-8.774000000000001 1.641,-12.3 c1.245,-7.423 3.685,-26.373 3.38,-29.959 l1.008,0.3540000000000001 C44.38921903038025,120.24167036366462 44.84521903038025,119.88867036366463 44.84521903038025,119.88867036366463 z" id="svg_3" fill="#ffffff" fill-opacity="1" stroke="#000000" stroke-opacity="1"/>
	</g>
</g><g id="svg_4" class="">
</g><g id="svg_5" class="">
</g><g id="svg_6" class="">
</g><g id="svg_7" class="">
</g><g id="svg_8" class="">
</g><g id="svg_9" class="">
</g><g id="svg_10" class="">
</g><g id="svg_11" class="">
</g><g id="svg_12" class="">
</g><g id="svg_13" class="">
</g><g id="svg_14" class="">
</g><g id="svg_15" class="">
</g><g id="svg_16" class="">
</g><g id="svg_17" class="">
</g><g id="svg_18" class="">
</g></g></svg>